<svg id="Capa_1" enable-background="new 0 0 512 512" height="512" viewBox="0 0 512 512" width="512" xmlns="http://www.w3.org/2000/svg"><g><g><path d="m256 512c-68.38 0-132.667-26.629-181.02-74.98-48.351-48.353-74.98-112.64-74.98-181.02s26.629-132.667 74.98-181.02c48.353-48.351 112.64-74.98 181.02-74.98s132.667 26.629 181.02 74.98c48.351 48.353 74.98 112.64 74.98 181.02s-26.629 132.667-74.98 181.02c-48.353 48.351-112.64 74.98-181.02 74.98zm0-482c-60.367 0-117.12 23.508-159.806 66.194s-66.194 99.439-66.194 159.806 23.508 117.12 66.194 159.806 99.439 66.194 159.806 66.194 117.12-23.508 159.806-66.194 66.194-99.439 66.194-159.806-23.508-117.12-66.194-159.806-99.439-66.194-159.806-66.194z"/></g><g><path d="m241 60.036h30v40.032h-30z"/></g><g><path d="m360.398 116.586h40.032v30h-40.032z" transform="matrix(.707 -.707 .707 .707 18.375 307.534)"/></g><g><path d="m411.932 241h40.032v30h-40.032z"/></g><g><path d="m365.414 360.398h30v40.032h-30z" transform="matrix(.707 -.707 .707 .707 -157.573 380.414)"/></g><g><path d="m241 411.932h30v40.032h-30z"/></g><g><path d="m111.57 365.414h40.032v30h-40.032z" transform="matrix(.707 -.707 .707 .707 -230.453 204.466)"/></g><g><path d="m60.036 241h40.032v30h-40.032z"/></g><g><path d="m116.586 111.57h30v40.032h-30z" transform="matrix(.707 -.707 .707 .707 -54.505 131.586)"/></g><g><path d="m361.892 271h-120.892v-120.892h30v90.892h90.892z"/></g></g></svg>